<svg width="22" height="22" viewBox="0 0 22 22" fill="none" xmlns="http://www.w3.org/2000/svg">
<path d="M21.8297 10.565L20.3954 9.80491C20.1983 9.69746 20.0256 9.55029 19.8882 9.3727C19.7508 9.19512 19.6518 8.99097 19.5974 8.77318C19.5596 8.63217 19.5183 8.48429 19.4736 8.35361C19.4065 8.13249 19.3886 7.89935 19.4213 7.6706C19.454 7.44185 19.5364 7.22304 19.6628 7.02955L20.4711 5.733C20.5013 5.68072 20.5172 5.62142 20.5172 5.56105C20.5172 5.50068 20.5013 5.44137 20.4711 5.38909C20.4399 5.33506 20.3946 5.29051 20.3401 5.26022C20.2856 5.22993 20.2238 5.21504 20.1615 5.21714L18.4417 5.27904C18.2274 5.28265 18.0146 5.24241 17.8165 5.16079C17.6183 5.07918 17.439 4.95791 17.2894 4.80444C17.1896 4.70815 17.0899 4.61185 16.9867 4.519C16.8215 4.36146 16.693 4.16948 16.6104 3.95669C16.5277 3.7439 16.493 3.51553 16.5086 3.2878L16.5636 1.68173C16.5657 1.6194 16.5508 1.55767 16.5205 1.50314C16.4902 1.44862 16.4457 1.40336 16.3916 1.37221C16.3394 1.34203 16.28 1.32614 16.2197 1.32614C16.1593 1.32614 16.1 1.34203 16.0477 1.37221L14.5686 2.30421C14.3774 2.42247 14.1637 2.49974 13.9411 2.53112C13.7185 2.56249 13.4918 2.5473 13.2753 2.48648H13.2478C13.0241 2.4332 12.814 2.33379 12.631 2.19462C12.448 2.05544 12.2961 1.87958 12.185 1.67829L11.3938 0.18916C11.3655 0.132961 11.3223 0.0856068 11.269 0.0522549C11.2156 0.018903 11.1541 0.000831788 11.0912 9.21508e-06C11.0283 -0.000450437 10.9666 0.0162937 10.9126 0.0484255C10.8587 0.0805572 10.8145 0.12685 10.785 0.182282L9.99734 1.67142C9.89597 1.86692 9.75438 2.03878 9.58187 2.1757C9.40937 2.31261 9.20984 2.4115 8.99641 2.46585L8.74187 2.53119L8.68684 2.54839C8.47741 2.60559 8.25827 2.61801 8.04373 2.58482C7.82918 2.55164 7.62403 2.4736 7.44168 2.3558L5.942 1.42036C5.88939 1.38746 5.82885 1.36941 5.76681 1.36811C5.70477 1.36681 5.64353 1.38232 5.58959 1.41299C5.53565 1.44365 5.49101 1.48834 5.4604 1.54232C5.42979 1.59629 5.41436 1.65753 5.41573 1.71956L5.47765 3.47007C5.48216 3.70104 5.43793 3.93037 5.34784 4.14311C5.25776 4.35584 5.12384 4.5472 4.95482 4.70471L4.87227 4.78725C4.7152 4.94719 4.52707 5.07333 4.31944 5.1579C4.11182 5.24247 3.8891 5.2837 3.66495 5.27904L1.83506 5.21714C1.77272 5.21504 1.71097 5.22993 1.65644 5.26022C1.60191 5.29051 1.55665 5.33506 1.52549 5.38909C1.4953 5.44137 1.47941 5.50068 1.47941 5.56105C1.47941 5.62142 1.4953 5.68072 1.52549 5.733L2.46452 7.23246C2.58831 7.43488 2.66739 7.66142 2.69646 7.8969C2.72553 8.13237 2.70391 8.37134 2.63306 8.59778C2.63058 8.6229 2.62359 8.64737 2.61242 8.67C2.55761 8.88764 2.45843 9.09161 2.32112 9.26914C2.1838 9.44668 2.0113 9.59395 1.81442 9.70174L0.180591 10.5684C0.125986 10.5979 0.0803704 10.6415 0.0485779 10.6948C0.0167855 10.7481 0 10.809 0 10.871C0 10.9331 0.0167855 10.994 0.0485779 11.0472C0.0803704 11.1005 0.125986 11.1442 0.180591 11.1737L1.71811 11.9819C1.9247 12.0944 2.10509 12.2494 2.24738 12.4368C2.38967 12.6241 2.49064 12.8394 2.54363 13.0686L2.59178 13.2647C2.64288 13.4636 2.65276 13.6708 2.62082 13.8736C2.58887 14.0765 2.51579 14.2707 2.40604 14.4443L1.41886 16.0228C1.38867 16.0751 1.37278 16.1344 1.37278 16.1948C1.37278 16.2551 1.38867 16.3144 1.41886 16.3667C1.45002 16.4208 1.49528 16.4653 1.54981 16.4956C1.60434 16.5259 1.66609 16.5408 1.72843 16.5387L3.47233 16.4768C3.68774 16.4675 3.90265 16.5044 4.10259 16.5851C4.30253 16.6658 4.48288 16.7883 4.63149 16.9445C4.70373 17.0236 4.7794 17.1061 4.85507 17.1784C5.00217 17.3315 5.11672 17.5128 5.1918 17.7114C5.26688 17.91 5.30093 18.1218 5.29191 18.3339L5.22999 20.1188C5.22798 20.1811 5.24294 20.2428 5.27329 20.2973C5.30364 20.3518 5.34823 20.3969 5.40228 20.428C5.45634 20.4591 5.51783 20.4749 5.58018 20.4738C5.64253 20.4726 5.7034 20.4545 5.75626 20.4214L7.16995 19.5376C7.36447 19.4191 7.58251 19.3444 7.80887 19.3189C8.03522 19.2933 8.26442 19.3175 8.48046 19.3897C8.6318 19.4344 8.78315 19.4791 8.93793 19.517C9.1627 19.5698 9.37382 19.6694 9.55754 19.8092C9.74125 19.9491 9.89345 20.126 10.0042 20.3286L10.7953 21.8177C10.8249 21.8731 10.869 21.9194 10.923 21.9516C10.9769 21.9837 11.0387 22.0005 11.1015 22C11.1637 21.9998 11.2247 21.9828 11.278 21.9507C11.3313 21.9186 11.3749 21.8726 11.4042 21.8177L12.1781 20.3561C12.2821 20.1535 12.4278 19.9752 12.6056 19.8329C12.7835 19.6906 12.9894 19.5877 13.21 19.5307L13.6124 19.4207C13.8257 19.3591 14.0497 19.3441 14.2693 19.3768C14.4889 19.4094 14.6989 19.4889 14.8851 19.6098L16.2437 20.4593C16.2969 20.4925 16.358 20.5107 16.4207 20.5117C16.4834 20.5127 16.5451 20.4966 16.5993 20.4651C16.6535 20.4336 16.698 20.3879 16.7281 20.3329C16.7582 20.2779 16.7727 20.2158 16.77 20.1532L16.7115 18.4887C16.7057 18.2716 16.7459 18.0559 16.8295 17.8555C16.9131 17.6552 17.0382 17.4748 17.1965 17.3262C17.2997 17.2265 17.4029 17.1199 17.5027 17.0133C17.6641 16.843 17.8606 16.7096 18.0785 16.6223C18.2964 16.5351 18.5306 16.496 18.765 16.5077L20.2784 16.5593C20.3414 16.5658 20.4049 16.5527 20.4603 16.522C20.5156 16.4912 20.5602 16.4442 20.588 16.3874C20.6182 16.3351 20.6341 16.2758 20.6341 16.2154C20.6341 16.155 20.6182 16.0957 20.588 16.0435L19.7247 14.6678C19.6082 14.479 19.5336 14.2674 19.5057 14.0474C19.4778 13.8273 19.4973 13.6038 19.563 13.3919C19.6043 13.2509 19.6387 13.1065 19.6696 12.962C19.7187 12.7453 19.813 12.5413 19.9464 12.3635C20.0798 12.1857 20.2492 12.0381 20.4436 11.9303L21.8194 11.1909C21.874 11.1614 21.9196 11.1177 21.9514 11.0644C21.9832 11.0112 22 10.9503 22 10.8882C22 10.8262 21.9832 10.7653 21.9514 10.712C21.9196 10.6587 21.874 10.6151 21.8194 10.5856L21.8297 10.565ZM11.0946 17.8559C9.73944 17.8559 8.41472 17.4541 7.28795 16.7013C6.16118 15.9485 5.28297 14.8786 4.76437 13.6268C4.24578 12.375 4.11009 10.9976 4.37447 9.66865C4.63885 8.33974 5.29141 7.11907 6.24965 6.16098C7.20789 5.20289 8.42876 4.55042 9.75787 4.28609C11.087 4.02175 12.4647 4.15742 13.7167 4.67593C14.9686 5.19445 16.0388 6.07252 16.7916 7.19911C17.5445 8.3257 17.9464 9.65022 17.9464 11.0052C17.9455 12.8218 17.2233 14.5638 15.9385 15.8483C14.6538 17.1329 12.9115 17.855 11.0946 17.8559Z" fill="#FFCC16"/>
<path d="M11.0945 4.84229C9.87542 4.84229 8.6837 5.20373 7.67006 5.88092C6.65642 6.5581 5.86639 7.52062 5.39986 8.64674C4.93333 9.77286 4.81127 11.012 5.0491 12.2075C5.28694 13.403 5.87399 14.5011 6.73602 15.363C7.59805 16.2249 8.69634 16.8118 9.89201 17.0496C11.0877 17.2874 12.327 17.1654 13.4533 16.6989C14.5796 16.2325 15.5423 15.4426 16.2196 14.4291C16.8969 13.4156 17.2584 12.2241 17.2584 11.0052C17.2565 9.37123 16.6066 7.80473 15.451 6.64936C14.2955 5.49399 12.7287 4.84411 11.0945 4.84229Z" fill="#FFCC16"/>
</svg>
