<svg width="40" height="25" viewBox="0 0 40 25" fill="none" xmlns="http://www.w3.org/2000/svg">
<path d="M25.3456 21.8698H14.5537V2.61923H25.3456V21.8698Z" fill="#FF5F00"/>
<path d="M15.245 12.243C15.245 8.33788 17.087 4.8593 19.9557 2.61764C17.8579 0.978413 15.2105 0 12.3331 0C5.52163 0 0 5.4813 0 12.243C0 19.0046 5.52163 24.4858 12.3331 24.4858C15.2105 24.4858 17.8579 23.5075 19.9557 21.8682C17.087 19.6266 15.245 16.148 15.245 12.243Z" fill="#EB001B"/>
<path d="M39.9007 12.243C39.9007 19.0046 34.3791 24.4858 27.5676 24.4858C24.6903 24.4858 22.0428 23.5075 19.9443 21.8682C22.8137 19.6266 24.6558 16.148 24.6558 12.243C24.6558 8.33788 22.8137 4.8593 19.9443 2.61764C22.0428 0.978413 24.6903 0 27.5676 0C34.3791 0 39.9007 5.4813 39.9007 12.243Z" fill="#F79E1B"/>
</svg>
