<?xml version="1.0" encoding="utf-8"?><svg viewBox="0 0 27 27" xmlns="http://www.w3.org/2000/svg" xmlns:xlink="http://www.w3.org/1999/xlink"><style>:root>svg{display:none}:root>svg:target{display:block}</style><svg fill="currentColor" viewBox="0 0 19 16" id="arrow-left" xmlns="http://www.w3.org/2000/svg"><path fill-rule="evenodd" clip-rule="evenodd" d="M6.657 15.071L.293 8.707a1 1 0 010-1.414L6.657.929A1 1 0 118.07 2.343L3.414 7H19v2H3.414l4.657 4.657a1 1 0 11-1.414 1.414z"/></svg><svg fill="currentColor" viewBox="0 0 13 16" id="arrow-left2" xmlns="http://www.w3.org/2000/svg"><path fill-rule="evenodd" clip-rule="evenodd" d="M6.657 15.071L.293 8.707a1 1 0 010-1.414L6.657.929A1 1 0 018.07 2.343L3.414 7H13v2H3.414l4.657 4.657a1 1 0 01-1.414 1.414z"/></svg><svg fill="currentColor" viewBox="0 0 19 16" id="arrow-right" xmlns="http://www.w3.org/2000/svg"><path fill-rule="evenodd" clip-rule="evenodd" d="M12.343.929l6.364 6.364a1 1 0 010 1.414l-6.364 6.364a1 1 0 01-1.414-1.414L15.586 9H0V7h15.586l-4.657-4.657A1 1 0 0112.343.93z"/></svg><svg fill="currentColor" viewBox="0 0 13 16" id="arrow-right2" xmlns="http://www.w3.org/2000/svg"><path fill-rule="evenodd" clip-rule="evenodd" d="M6.343.929l6.364 6.364a1 1 0 010 1.414l-6.364 6.364a1 1 0 01-1.414-1.414L9.586 9H0V7h9.586L4.929 2.343A1 1 0 016.343.93z"/></svg><svg fill="currentColor" viewBox="0 0 27 27" id="cart" xmlns="http://www.w3.org/2000/svg"><g clip-path="url(#eclip0_15_10)"><path d="M24.242 5.132H6.844l-.426-2.8A2.733 2.733 0 005.476.666 2.845 2.845 0 003.654 0H.843a.86.86 0 00-.628.223.825.825 0 00-.265.6.81.81 0 00.265.6.846.846 0 00.628.223h2.811c.266.001.523.095.724.266.201.17.333.405.373.662l.502 3.298a.682.682 0 000 .205l1.422 9.193.42 2.664c.122.774.522 1.48 1.127 1.99a3.405 3.405 0 002.178.799h13.682a.852.852 0 00.596-.241.816.816 0 000-1.166.852.852 0 00-.596-.242h-13.7a1.686 1.686 0 01-1.08-.395 1.62 1.62 0 01-.557-.988l-.113-.74H23.06c.648 0 1.276-.224 1.773-.63.498-.406.834-.97.95-1.595l1.183-6.398c.071-.39.055-.79-.049-1.173a2.682 2.682 0 00-.552-1.042 2.755 2.755 0 00-.951-.714 2.812 2.812 0 00-1.171-.253v-.014zm1.064 2.892l-1.183 6.399a1.054 1.054 0 01-.371.622c-.194.159-.44.245-.693.245H8.384l-.03-.196-1.259-8.317h17.147a1.096 1.096 0 01.828.382 1.024 1.024 0 01.236.868v-.003zM14.317 24.238c.001-.548-.164-1.082-.475-1.538a2.812 2.812 0 00-1.267-1.02 2.883 2.883 0 00-1.633-.158 2.846 2.846 0 00-1.448.756c-.396.387-.665.88-.775 1.416a2.71 2.71 0 00.16 1.598 2.78 2.78 0 001.042 1.242 2.87 2.87 0 003.568-.343c.53-.518.828-1.22.828-1.953zm-3.961 0c0-.221.067-.437.192-.62.126-.184.304-.328.512-.412a1.164 1.164 0 011.244.242 1.095 1.095 0 01.247 1.217 1.123 1.123 0 01-.42.5 1.168 1.168 0 01-1.446-.137 1.12 1.12 0 01-.338-.79h.009zM23.754 24.238c0-.548-.165-1.082-.475-1.538a2.813 2.813 0 00-1.268-1.02 2.883 2.883 0 00-1.633-.158 2.846 2.846 0 00-1.448.756c-.395.387-.665.88-.774 1.416a2.71 2.71 0 00.16 1.598c.214.506.576.938 1.041 1.242a2.87 2.87 0 003.568-.343c.53-.518.828-1.22.829-1.953zm-3.962 0c0-.221.067-.437.193-.62.125-.184.303-.328.512-.412a1.164 1.164 0 011.244.242 1.094 1.094 0 01.247 1.217 1.122 1.122 0 01-.42.5 1.159 1.159 0 01-.634.19 1.157 1.157 0 01-.797-.334c-.21-.209-.329-.49-.33-.784h-.014z"/></g><defs><clipPath id="eclip0_15_10"><path d="M0 0h27v27H0z"/></clipPath></defs></svg><svg fill="currentColor" viewBox="0 0 16 20" id="lock" xmlns="http://www.w3.org/2000/svg"><path d="M13.455 7.803V5.556C13.455 2.487 11.013 0 8 0S2.546 2.487 2.546 5.556v2.247C1.113 7.986 0 9.233 0 10.74v6.297C0 18.67 1.305 20 2.91 20h10.18c1.604 0 2.91-1.33 2.91-2.963V10.74c0-1.508-1.113-2.754-2.546-2.937zM8 2.593c1.604 0 2.91 1.33 2.91 2.963v2.22H5.09v-2.22c0-1.633 1.306-2.963 2.91-2.963zm.728 11.275v2.243c0 .409-.326.74-.728.74a.734.734 0 01-.727-.74v-2.243a1.48 1.48 0 01-.727-1.276c0-.819.65-1.482 1.454-1.482.804 0 1.455.663 1.455 1.482a1.48 1.48 0 01-.727 1.276z"/></svg><svg fill="currentColor" viewBox="0 0 9 18" id="sc-fb" xmlns="http://www.w3.org/2000/svg"><path d="M8.518 0v3.407H6.814c-.588 0-.852.69-.852 1.278v2.13h2.556v3.406H5.962v6.814H2.555v-6.814H0V6.814h2.555V3.407A3.407 3.407 0 015.962 0h2.556z"/></svg><svg fill="currentColor" viewBox="0 0 16 16" id="sc-ig" xmlns="http://www.w3.org/2000/svg"><path d="M4.491 0h6.505a4.494 4.494 0 014.49 4.491v6.505a4.491 4.491 0 01-4.49 4.49H4.49A4.494 4.494 0 010 10.997V4.49A4.491 4.491 0 014.491 0zm-.155 1.549A2.788 2.788 0 001.55 4.336v6.814a2.786 2.786 0 002.787 2.788h6.814a2.788 2.788 0 002.788-2.788V4.336A2.786 2.786 0 0011.15 1.55H4.336zM11.81 2.71a.968.968 0 110 1.937.968.968 0 010-1.937zM7.743 3.872a3.872 3.872 0 110 7.743 3.872 3.872 0 010-7.743zm0 1.548a2.323 2.323 0 100 4.646 2.323 2.323 0 000-4.646z"/></svg><svg fill="currentColor" viewBox="0 0 17 14" id="sc-tg" xmlns="http://www.w3.org/2000/svg"><path d="M6.395 13.153l.265-3.916 7.243-6.405c.321-.287-.066-.426-.49-.176L4.47 8.2.604 6.997c-.83-.231-.84-.796.189-1.203L15.856.092c.688-.306 1.349.166 1.085 1.203l-2.566 11.858c-.18.842-.698 1.046-1.415.657l-3.905-2.832-1.877 1.786c-.217.213-.396.389-.783.389z"/></svg><svg fill="currentColor" viewBox="0 0 21 17" id="sc-tw" xmlns="http://www.w3.org/2000/svg"><path d="M20.92 2c-.77.35-1.6.58-2.46.69.88-.53 1.56-1.37 1.88-2.38-.83.5-1.75.85-2.72 1.05C16.83.5 15.72 0 14.46 0c-2.35 0-4.27 1.92-4.27 4.29 0 .34.04.67.11.98C6.74 5.09 3.57 3.38 1.46.79c-.37.63-.58 1.37-.58 2.15 0 1.49.75 2.81 1.91 3.56-.71 0-1.37-.2-1.95-.5v.03c0 2.08 1.48 3.82 3.44 4.21a4.22 4.22 0 01-1.93.07 4.28 4.28 0 004 2.98 8.521 8.521 0 01-5.33 1.84c-.34 0-.68-.02-1.02-.06C1.9 16.29 4.16 17 6.58 17c7.88 0 12.21-6.54 12.21-12.21 0-.19 0-.37-.01-.56.84-.6 1.56-1.36 2.14-2.23z"/></svg><svg fill="currentColor" viewBox="0 0 21 13" id="sc-vk" xmlns="http://www.w3.org/2000/svg"><path d="M17.945 8.552c1.617 1.62 1.951 2.397 2.003 2.498.668 1.193-.73 1.283-.73 1.283l-2.692.045s-.584.124-1.335-.439c-1.012-.743-1.982-2.69-2.702-2.43-.74.258-.72 2.002-.72 2.002s0 .248-.167.44c-.188.213-.553.134-.553.134h-1.2s-2.66.293-4.987-2.329C2.306 6.898.052 1.272.052 1.272S-.072.934.064.742C.22.563.658.563.658.563h2.88s.281 0 .458.18c.157.124.25.383.25.383s.46 1.25 1.086 2.397c1.2 2.24 1.753 2.723 2.139 2.487.626-.349.448-3.162.448-3.162s.01-1.024-.302-1.474c-.24-.349-.7-.462-.898-.484-.167-.023.105-.428.449-.619C7.69 0 8.598 0 9.682 0c.845 0 1.085.068 1.409.146 1.001.26.657 1.26.657 3.646 0 .777-.104 1.834.386 2.206.22.157.762.022 2.118-2.442C14.878 2.386 15.358 1 15.358 1s.104-.236.26-.348c.168-.09.397-.09.397-.09h3.026s.918-.113 1.064.326c.156.461-.344 1.553-1.586 3.32-2.024 2.925-2.253 2.655-.574 4.343z"/></svg><svg fill="currentColor" viewBox="0 0 20 16" id="sc-yt" xmlns="http://www.w3.org/2000/svg"><path d="M8 12.5v-9L14 8l-6 4.5zM18 .4c-.6-.2-4.3-.4-8-.4S2.6.19 2 .38C.44.9 0 4.4 0 8c0 3.59.44 7.1 2 7.61.6.2 4.3.39 8 .39s7.4-.19 8-.39c1.56-.51 2-4.02 2-7.61 0-3.6-.44-7.09-2-7.6z"/></svg><svg fill="currentColor" viewBox="0 0 19 19" id="search" xmlns="http://www.w3.org/2000/svg"><g clip-path="url(#mclip0_67_80)"><path d="M18.81 17.896l-6.193-6.195a7.134 7.134 0 10-.916.916l6.195 6.193a.646.646 0 10.914-.914zM7.136 12.972a5.842 5.842 0 110-11.684 5.842 5.842 0 010 11.684z"/></g><defs><clipPath id="mclip0_67_80"><path d="M0 0h19v19H0z"/></clipPath></defs></svg><svg fill="currentColor" viewBox="0 0 21 18" id="send" xmlns="http://www.w3.org/2000/svg"><path d="M0 18l21-9L0 0v7l15 2-15 2v7z"/></svg><svg fill="currentColor" viewBox="0 0 27 26" id="user" xmlns="http://www.w3.org/2000/svg"><g clip-path="url(#oclip0_15_7)"><path d="M.958 26a.88.88 0 01-.304-.04.958.958 0 01-.55-.478.933.933 0 01-.043-.723 14.14 14.14 0 015.194-6.778 14.426 14.426 0 018.194-2.606c2.938-.017 5.81.86 8.225 2.51a14.145 14.145 0 015.274 6.718.93.93 0 01-.046.698.948.948 0 01-.522.474.964.964 0 01-.71-.014.947.947 0 01-.502-.494 12.263 12.263 0 00-4.579-5.802 12.507 12.507 0 00-7.12-2.162 12.503 12.503 0 00-7.09 2.258 12.257 12.257 0 00-4.499 5.862.99.99 0 01-.374.424A1.007 1.007 0 01.958 26zM13.534 13.819a7.062 7.062 0 01-3.888-1.165 6.93 6.93 0 01-2.578-3.1A6.828 6.828 0 016.67 5.56a6.883 6.883 0 011.915-3.537A7.026 7.026 0 0112.168.133a7.082 7.082 0 014.044.393 6.98 6.98 0 013.14 2.545 6.847 6.847 0 011.18 3.838 6.88 6.88 0 01-2.055 4.881 7.059 7.059 0 01-4.944 2.029zm0-11.947a5.15 5.15 0 00-2.836.847 5.052 5.052 0 00-1.88 2.26 4.979 4.979 0 00-.292 2.911 5.018 5.018 0 001.395 2.58 5.124 5.124 0 002.613 1.38c.99.195 2.016.095 2.948-.286a5.088 5.088 0 002.29-1.856c.562-.828.86-1.802.86-2.799a5.018 5.018 0 00-1.497-3.555 5.148 5.148 0 00-3.602-1.48v-.002z"/></g><defs><clipPath id="oclip0_15_7"><path d="M0 0h27v26H0z"/></clipPath></defs></svg></svg>