<svg width="51" height="18" viewBox="0 0 51 18" fill="none" xmlns="http://www.w3.org/2000/svg">
<path d="M22.3153 16.9205H18.1836L20.7659 1.0506H24.8981L22.3153 16.9205ZM14.7077 1.0506L10.7686 11.9661L10.3025 9.61555L10.3029 9.6164L8.91265 2.47951C8.91265 2.47951 8.74454 1.0506 6.95268 1.0506H0.44067L0.364258 1.31932C0.364258 1.31932 2.35564 1.73364 4.68621 3.13326L8.27588 16.921H12.5809L19.1544 1.0506H14.7077ZM47.2061 16.9205H51L47.6922 1.05018H44.3708C42.8371 1.05018 42.4635 2.23287 42.4635 2.23287L36.3013 16.9205H40.6084L41.4697 14.5632H46.7222L47.2061 16.9205ZM42.6596 11.3068L44.8306 5.36788L46.0519 11.3068H42.6596ZM36.6243 4.86696L37.214 1.45898C37.214 1.45898 35.3945 0.767029 33.4978 0.767029C31.4474 0.767029 26.5783 1.66317 26.5783 6.02078C26.5783 10.1207 32.293 10.1717 32.293 12.3252C32.293 14.4788 27.1671 14.0929 25.4754 12.7349L24.8611 16.2982C24.8611 16.2982 26.7061 17.1944 29.5248 17.1944C32.3444 17.1944 36.598 15.7345 36.598 11.761C36.598 7.63478 30.8319 7.25059 30.8319 5.45661C30.8323 3.6622 34.8562 3.89271 36.6243 4.86696Z" fill="#2566AF"/>
<path d="M10.3029 9.61596L8.91265 2.47908C8.91265 2.47908 8.74454 1.05017 6.95268 1.05017H0.44067L0.364258 1.31889C0.364258 1.31889 3.49418 1.96754 6.49633 4.39787C9.36688 6.7208 10.3029 9.61596 10.3029 9.61596Z" fill="#E6A540"/>
</svg>
